inDegrees=yes
name=ik_l_comf_01-000_00_orientations
DataType=double
version=3
OpenSimVersion=4.5
endheader
time	pelvis_tilt	pelvis_list	pelvis_rotation	pelvis_tx	pelvis_ty	pelvis_tz	hip_flexion_r	hip_adduction_r	hip_rotation_r	knee_angle_r	knee_angle_r_beta	ankle_angle_r	subtalar_angle_r	mtp_angle_r	hip_flexion_l	hip_adduction_l	hip_rotation_l	knee_angle_l	knee_angle_l_beta	ankle_angle_l	subtalar_angle_l	mtp_angle_l	lumbar_extension	lumbar_bending	lumbar_rotation	arm_flex_r	arm_add_r	arm_rot_r	elbow_flex_r	pro_sup_r	wrist_flex_r	wrist_dev_r	arm_flex_l	arm_add_l	arm_rot_l	elbow_flex_l	pro_sup_l	wrist_flex_l	wrist_dev_l
15.75000000000016	7.033835005663621	0.2451053995782177	-85.40488039991699	0	0.9399999999999999	0	-6.301128729063139	22.09748748563179	-9.918098252909859	0.00318580236217218	5.560274053771739e-05	-39.99479113316344	0	0	33.93223179132235	-49.97523558579116	16.84616859820003	0.02806297046951789	0.0004897912325830261	-31.90856792087245	0	0	0	0	0	0	-5.712791043704408	0	61.6374347488285	45.78722184868037	0	0	0	-5.712791043704408	0	61.6374347488285	45.78722184868037	0	0
15.77500000000016	7.763936354945793	0.3627976160105201	-84.72913068608054	0	0.9399999999999999	0	-5.815870278644601	21.68293437981218	-10.94097160576385	0.003194682706209005	5.575773177986984e-05	-39.99480718795063	0	0	34.33076021855095	-49.97776136435981	17.45727787720782	0.03049919584502843	0.0005323113867063203	-31.75919983740872	0	0	0	0	0	0	-5.722741862445409	0	61.66611038405599	45.78270347472429	0	0	0	-5.722741862445409	0	61.66611038405599	45.78270347472429	0	0
15.80000000000016	8.173062031008644	0.4299802337493326	-84.45715558497689	0	0.9399999999999999	0	-5.554587310879007	21.56369099424187	-11.46523448253501	0.00320184896305688	5.588280655690884e-05	-39.9948196286669	0	0	34.00523792858644	-49.97887769750397	17.14488783487413	0.03264371141589573	0.0005697402442782404	-32.35704107557512	0	0	0	0	0	0	-5.727016407421431	0	61.6783356772115	45.7808068527165	0	0	0	-5.727016407421431	0	61.6783356772115	45.7808068527165	0	0
15.82500000000016	8.465172973468496	0.4050898404561459	-84.60585640404345	0	0.9399999999999999	0	-5.547400314849003	21.53310789727245	-11.51780952286864	0.003207804161026718	5.59867443690906e-05	-39.9948292527412	0	0	32.69620943055057	-49.97917035016982	15.73928926684665	0.03402922602834864	0.000593922036100037	-33.34165173845214	0	0	0	0	0	0	-5.739406162319622	0	61.71370542090682	45.77534189863969	0	0	0	-5.739406162319622	0	61.71370542090682	45.77534189863969	0	0
15.85000000000016	8.694797292799434	0.4106091293131439	-84.73326146741762	0	0.9399999999999999	0	-5.483253414668497	21.54689852942576	-11.61903151928676	0.003214851154299524	5.610973760406696e-05	-39.99484236793236	0	0	31.36873133216204	-49.97942149047923	14.34246566575925	0.03574430273652163	0.0006238557715819217	-34.23195749191139	0	0	0	0	0	0	-5.753474057415416	0	61.75364161074972	45.76924512180302	0	0	0	-5.753474057415416	0	61.75364161074972	45.76924512180302	0	0
15.87500000000016	9.073460906751826	0.418926610030731	-84.81083171727995	0	0.9399999999999999	0	-5.414013580042344	21.41906568374832	-11.71670357195329	0.003221069002678368	5.621825953066757e-05	-39.99485403638003	0	0	29.938142216525	-49.98002634776651	13.11211712687784	0.03841467966439506	0.0006704626412426041	-34.41473681654266	0	0	0	0	0	0	-5.765343577437296	0	61.78754707851134	45.76401678055526	0	0	0	-5.765343577437296	0	61.78754707851134	45.76401678055526	0	0
15.90000000000016	9.551511515145709	0.4417330313142542	-84.86327041614634	0	0.9399999999999999	0	-5.343591805541753	21.18921026026154	-11.826244473195	0.003228280728168977	5.634412788522871e-05	-39.99486538093486	0	0	28.4336420828968	-49.98074965106098	11.96969225511714	0.04193926945325553	0.0007319783378403911	-34.10731553441455	0	0	0	0	0	0	-5.77761977127449	0	61.82263396255262	45.75860823279987	0	0	0	-5.77761977127449	0	61.82263396255262	45.75860823279987	0	0
15.92500000000016	10.07717117921529	0.4520810384315165	-84.95684384864535	0	0.9399999999999999	0	-5.291531205866023	20.87079549393459	-11.92404901964688	0.003234631518772933	5.645497009137244e-05	-39.99487835876275	0	0	26.78757398221964	-49.98144062757456	10.67712502673639	0.04647750713325088	0.0008111855275943786	-33.76770154119259	0	0	0	0	0	0	-5.790359041042951	0	61.85899782130016	45.75302497812996	0	0	0	-5.790359041042951	0	61.85899782130016	45.75302497812996	0	0
